<?xml version="1.0" encoding="utf-8"?>
<!-- Generator: Adobe Illustrator 16.0.3, SVG Export Plug-In . SVG Version: 6.00 Build 0)  -->
<!DOCTYPE svg PUBLIC "-//W3C//DTD SVG 1.1//EN" "http://www.w3.org/Graphics/SVG/1.1/DTD/svg11.dtd">
<svg version="1.1" id="Capa_1" xmlns="http://www.w3.org/2000/svg" xmlns:xlink="http://www.w3.org/1999/xlink" x="0px" y="0px"
	 width="395px" height="80.5px" viewBox="0 0 395 80.5" enable-background="new 0 0 395 80.5" xml:space="preserve">
<g>
	<path fill="#E83C46" d="M111.94,0.059c0.316-0.017,0.632-0.048,0.949-0.048c28.487-0.002,56.974-0.002,85.46,0
		c0.311,0,0.628-0.049,0.915,0.063c0.107,0.71,0.141,10.004,0.043,11.318c-0.147,0.026-0.308,0.069-0.47,0.079
		c-0.23,0.014-0.462,0.004-0.693,0.004c-28.371,0-56.743,0-85.114-0.001c-0.346,0-0.691-0.016-1.038-0.024
		c-0.007-0.316-0.02-0.632-0.02-0.948c-0.001-3.136,0-6.272-0.002-9.409C111.969,0.748,111.95,0.403,111.94,0.059"/>
	<path fill="#1D68A2" d="M111.94,0.059c0.011,0.345,0.029,0.689,0.029,1.034c0.002,3.136,0.001,6.272,0.002,9.409
		c0,0.316,0.013,0.632,0.02,0.948c-0.287,0.017-0.574,0.049-0.862,0.049C91.504,11.501,71.88,11.501,52.255,11.5
		c-0.281,0-0.563-0.021-0.829-0.031c-0.138-0.813-0.19-7.271-0.095-10.866c0.004-0.167,0.042-0.333,0.072-0.557
		c0.344-0.003,0.656-0.01,0.97-0.01c3.873,0,7.746,0,11.618,0c15.606,0,31.214,0,46.82,0.001
		C111.189,0.037,111.564,0.051,111.94,0.059"/>
	<path fill="#FFFFFF" d="M200.485,28.147h1.213c0.033,0.194,0.075,0.357,0.088,0.521c0.014,0.201,0.004,0.403,0.004,0.605
		c0,11.911,0,23.819,0,35.729c0,0.343-0.01,0.686-0.015,1.028c-0.42,0.243-0.817,0.133-1.256,0.112
		c-0.041-0.164-0.101-0.32-0.117-0.481c-0.021-0.2-0.007-0.403-0.007-0.604c0-11.939,0-23.877,0.002-35.816
		C200.397,28.901,200.354,28.554,200.485,28.147"/>
	<polygon fill="#FFFFFF" points="216.912,51.145 216.912,47.788 214.038,47.788 214.038,51.145 212.52,51.145 212.52,43.055 
		214.038,43.055 214.038,46.361 216.912,46.361 216.912,43.055 218.441,43.055 218.441,51.145 	"/>
	<path fill="#FFFFFF" d="M223.189,51.145l-0.207-0.695c-0.287,0.406-0.851,0.814-1.644,0.814c-1.127,0-1.886-0.755-1.886-1.882
		c0-1.09,0.771-1.737,2.127-1.737h1.185v-0.3c0-0.755-0.414-0.995-0.989-0.995c-0.667,0-1.229,0.181-1.688,0.396l-0.38-1.114
		c0.563-0.252,1.334-0.479,2.219-0.479c1.598,0,2.288,0.768,2.288,2.266v3.727H223.189L223.189,51.145z M222.764,48.579h-0.932
		c-0.621,0-0.908,0.312-0.908,0.755c0,0.54,0.276,0.863,0.84,0.863c0.355,0,0.724-0.167,1-0.396V48.579L222.764,48.579z"/>
	<path fill="#FFFFFF" d="M229.845,50.748c-0.32,0.18-1.08,0.516-1.93,0.516c-1.681,0-2.691-0.994-2.691-3.056
		c0-1.917,1.012-3.056,2.68-3.056c0.746,0,1.392,0.156,1.933,0.479l-0.394,1.066c-0.401-0.251-0.92-0.359-1.414-0.359
		c-0.78,0-1.274,0.552-1.274,1.869c0,1.331,0.471,1.87,1.287,1.87c0.586,0,1.162-0.229,1.528-0.444L229.845,50.748z"/>
	<path fill="#FFFFFF" d="M231.146,51.145v-4.746l-0.656-0.146v-0.981h2.15v5.873H231.146z M231.099,42.874h1.519v1.427h-1.519
		V42.874z"/>
	<path fill="#FFFFFF" d="M237.317,51.145l-0.207-0.695c-0.287,0.406-0.85,0.814-1.643,0.814c-1.127,0-1.887-0.755-1.887-1.882
		c0-1.09,0.771-1.737,2.127-1.737h1.186v-0.3c0-0.755-0.414-0.995-0.99-0.995c-0.666,0-1.229,0.181-1.688,0.396l-0.379-1.114
		c0.563-0.252,1.334-0.479,2.219-0.479c1.598,0,2.287,0.768,2.287,2.266v3.727H237.317L237.317,51.145z M236.894,48.579h-0.932
		c-0.621,0-0.908,0.312-0.908,0.755c0,0.54,0.275,0.863,0.84,0.863c0.355,0,0.724-0.167,1-0.396V48.579L236.894,48.579z"/>
	<path fill="#FFFFFF" d="M245.79,51.145l-0.229-0.72c-0.266,0.36-0.863,0.839-1.76,0.839c-1.402,0-2.047-0.814-2.047-2.433v-3.56
		h1.496v3.571c0,0.898,0.309,1.222,0.987,1.222c0.392,0,0.746-0.155,1.013-0.348v-4.445h1.528v5.873H245.79z"/>
	<path fill="#FFFFFF" d="M251.366,51.145v-3.488c0-0.887-0.322-1.307-1.013-1.307c-0.391,0-0.725,0.18-0.987,0.359v4.436h-1.507
		v-5.873h1.035l0.229,0.67c0.321-0.396,0.942-0.791,1.783-0.791c1.426,0,1.987,0.875,1.987,2.361v3.631h-1.528V51.145z"/>
	<path fill="#FFFFFF" d="M257.436,51.145l-0.207-0.695c-0.287,0.406-0.85,0.814-1.643,0.814c-1.127,0-1.887-0.755-1.887-1.882
		c0-1.09,0.771-1.737,2.127-1.737h1.184v-0.3c0-0.755-0.414-0.995-0.988-0.995c-0.666,0-1.229,0.181-1.688,0.396l-0.379-1.114
		c0.563-0.252,1.332-0.479,2.219-0.479c1.598,0,2.287,0.768,2.287,2.266v3.727H257.436L257.436,51.145z M257.01,48.579h-0.932
		c-0.619,0-0.906,0.312-0.906,0.755c0,0.54,0.274,0.863,0.838,0.863c0.357,0,0.725-0.167,1-0.396V48.579z"/>
	<path fill="#FFFFFF" d="M262.92,51.145h-1.474l2.104-8.09h2.508l2.033,8.09h-1.689L266,49.322h-2.666L262.92,51.145z
		 M264.461,44.434l-0.853,3.618h2.115l-0.793-3.618H264.461z"/>
	<path fill="#FFFFFF" d="M270.84,51.264c-1,0-1.654-0.49-1.654-1.965v-2.912h-0.84v-1.115h0.84v-1.019l1.482-0.504v1.522h1.506
		v1.114h-1.506v2.876c0,0.407,0.194,0.67,0.598,0.67c0.312,0,0.633-0.096,0.861-0.215l0.229,1.15
		C272.026,51.072,271.438,51.264,270.84,51.264"/>
	<path fill="#FFFFFF" d="M274.163,48.627c0,0.936,0.506,1.451,1.448,1.451c0.574,0,1.162-0.229,1.656-0.492l0.287,1.104
		c-0.471,0.263-1.242,0.574-2.127,0.574c-1.736,0-2.771-1.127-2.771-3.068c0-1.809,0.841-3.043,2.646-3.043
		c1.701,0,2.369,1.317,2.369,2.791v0.684H274.163z M275.221,46.302c-0.748,0-1.059,0.708-1.059,1.402h2.059
		C276.221,46.949,276.002,46.302,275.221,46.302"/>
	<path fill="#FFFFFF" d="M282.143,51.145v-3.488c0-0.887-0.322-1.307-1.014-1.307c-0.392,0-0.724,0.18-0.988,0.359v4.436h-1.506
		v-5.873h1.035l0.229,0.67c0.322-0.396,0.941-0.791,1.781-0.791c1.426,0,1.988,0.875,1.988,2.361v3.631h-1.526V51.145z"/>
	<path fill="#FFFFFF" d="M289.223,50.748c-0.32,0.18-1.08,0.516-1.93,0.516c-1.681,0-2.691-0.994-2.691-3.056
		c0-1.917,1.012-3.056,2.68-3.056c0.746,0,1.392,0.156,1.931,0.479l-0.392,1.066c-0.401-0.251-0.918-0.36-1.414-0.36
		c-0.78,0-1.274,0.551-1.274,1.87c0,1.331,0.471,1.87,1.287,1.87c0.586,0,1.162-0.229,1.528-0.444L289.223,50.748z"/>
	<path fill="#FFFFFF" d="M290.524,51.145v-4.746l-0.655-0.146v-0.981h2.149v5.873H290.524z M290.477,42.874h1.519v1.427h-1.519
		V42.874z"/>
	<path fill="#FFFFFF" d="M298.282,48.195c0,2.002-0.967,3.068-2.644,3.068c-1.688,0-2.645-1.056-2.645-3.068
		c0-1.727,0.92-3.045,2.645-3.045C297.34,45.15,298.282,46.47,298.282,48.195 M294.249,44.359l-0.15-0.898l2.908-0.852l0.195,1.15
		L294.249,44.359z M296.742,48.195c0-1.414-0.402-1.905-1.104-1.905s-1.092,0.503-1.092,1.905c0,1.367,0.354,1.918,1.092,1.918
		C296.375,50.113,296.742,49.598,296.742,48.195"/>
	<path fill="#FFFFFF" d="M302.741,51.145v-3.488c0-0.887-0.319-1.307-1.012-1.307c-0.391,0-0.723,0.18-0.988,0.359v4.436h-1.506
		v-5.873h1.035l0.23,0.67c0.319-0.396,0.94-0.791,1.78-0.791c1.426,0,1.988,0.875,1.988,2.361v3.631h-1.528V51.145z"/>
	<path fill="#FFFFFF" d="M310.102,48.328h-0.852v2.816h-1.507v-8.09h2.357c1.586,0,2.953,0.79,2.953,2.527
		C313.055,47.141,311.93,48.328,310.102,48.328 M310.066,44.385h-0.815v2.708h0.815c0.885,0,1.391-0.563,1.391-1.45
		C311.456,44.814,310.928,44.385,310.066,44.385"/>
	<path fill="#FFFFFF" d="M316.988,46.578c-0.186-0.061-0.449-0.096-0.703-0.096c-0.401,0-0.758,0.179-1.012,0.395v4.268h-1.494
		v-5.873h1.047l0.16,0.791h0.035c0.172-0.42,0.678-0.898,1.346-0.898c0.3,0,0.527,0.048,0.654,0.083L316.988,46.578z"/>
	<path fill="#FFFFFF" d="M318.195,51.145v-4.746l-0.656-0.146v-0.981h2.15v5.873H318.195z M318.148,42.874h1.519v1.427h-1.519
		V42.874z"/>
	<path fill="#FFFFFF" d="M325.872,47.514v3.631h-1.518v-3.488c0-0.887-0.309-1.307-1.01-1.307c-0.394,0-0.691,0.18-0.955,0.359
		v4.436h-1.506v-5.873h1.012l0.252,0.683c0.322-0.408,0.875-0.804,1.668-0.804c0.92,0,1.471,0.289,1.758,0.828
		c0.334-0.42,0.92-0.828,1.701-0.828c1.611,0,2.082,0.875,2.082,2.361v3.631h-1.529v-3.487c0-0.888-0.356-1.308-1.057-1.308
		c-0.369,0-0.703,0.18-0.955,0.36C325.863,46.949,325.872,47.225,325.872,47.514"/>
	<path fill="#FFFFFF" d="M333.887,51.145l-0.207-0.695c-0.287,0.406-0.851,0.814-1.644,0.814c-1.127,0-1.887-0.755-1.887-1.882
		c0-1.09,0.771-1.737,2.127-1.737h1.185v-0.3c0-0.755-0.414-0.995-0.988-0.995c-0.666,0-1.23,0.181-1.689,0.396l-0.379-1.114
		c0.563-0.252,1.334-0.479,2.219-0.479c1.599,0,2.287,0.767,2.287,2.266v3.727H333.887L333.887,51.145z M333.461,48.579h-0.931
		c-0.621,0-0.908,0.312-0.908,0.755c0,0.54,0.275,0.863,0.839,0.863c0.356,0,0.725-0.167,1-0.396V48.579L333.461,48.579z"/>
	<path fill="#FFFFFF" d="M339.256,46.578c-0.185-0.061-0.449-0.096-0.701-0.096c-0.402,0-0.76,0.179-1.012,0.395v4.268h-1.494
		v-5.873h1.047l0.16,0.791h0.032c0.175-0.42,0.681-0.898,1.347-0.898c0.299,0,0.528,0.048,0.656,0.083L339.256,46.578z"/>
	<path fill="#FFFFFF" d="M340.463,51.145v-4.746l-0.654-0.146v-0.981h2.148v5.873H340.463z M340.418,42.874h1.518v1.427h-1.518
		V42.874z"/>
	<path fill="#FFFFFF" d="M346.637,51.145l-0.207-0.695c-0.287,0.406-0.853,0.814-1.646,0.814c-1.127,0-1.885-0.755-1.885-1.882
		c0-1.09,0.771-1.737,2.127-1.737h1.185v-0.3c0-0.755-0.414-0.995-0.988-0.995c-0.666,0-1.23,0.181-1.689,0.396l-0.379-1.114
		c0.563-0.252,1.332-0.479,2.219-0.479c1.599,0,2.287,0.767,2.287,2.266v3.727H346.637L346.637,51.145z M346.211,48.579h-0.933
		c-0.619,0-0.908,0.312-0.908,0.755c0,0.54,0.277,0.863,0.841,0.863c0.356,0,0.725-0.167,1-0.396V48.579z"/>
	<path fill="#FFFFFF" d="M355.109,51.145l-0.229-0.72c-0.265,0.359-0.861,0.839-1.759,0.839c-1.401,0-2.047-0.814-2.047-2.433v-3.56
		h1.494v3.57c0,0.899,0.312,1.223,0.988,1.223c0.393,0,0.748-0.155,1.012-0.348v-4.445h1.529v5.873H355.109z"/>
	<path fill="#FFFFFF" d="M360.686,51.145v-3.488c0-0.887-0.322-1.307-1.012-1.307c-0.392,0-0.726,0.18-0.988,0.358v4.435h-1.506
		V45.27h1.033l0.229,0.672c0.322-0.396,0.943-0.791,1.781-0.791c1.426,0,1.99,0.875,1.99,2.36v3.632h-1.528V51.145z"/>
	<path fill="#FFFFFF" d="M363.743,51.145v-4.746l-0.655-0.146v-0.981h2.149v5.873H363.743z M363.697,42.874h1.519v1.427h-1.519
		V42.874z"/>
	<polygon fill="#FFFFFF" points="369.732,51.145 367.536,51.145 365.848,45.271 367.536,45.271 368.721,50.197 368.768,50.197 
		369.939,45.271 371.456,45.271 	"/>
	<path fill="#FFFFFF" d="M373.344,48.627c0,0.936,0.504,1.451,1.446,1.451c0.574,0,1.162-0.229,1.656-0.492l0.287,1.104
		c-0.471,0.263-1.242,0.574-2.127,0.574c-1.736,0-2.771-1.125-2.771-3.068c0-1.81,0.84-3.043,2.645-3.043
		c1.701,0,2.369,1.317,2.369,2.791v0.684H373.344z M374.4,46.302c-0.748,0-1.057,0.708-1.057,1.402h2.057
		C375.4,46.949,375.182,46.302,374.4,46.302"/>
	<path fill="#FFFFFF" d="M381.021,46.578c-0.184-0.061-0.447-0.096-0.701-0.096c-0.401,0-0.758,0.179-1.01,0.395v4.268h-1.496
		v-5.873h1.047l0.16,0.791h0.035c0.172-0.42,0.678-0.898,1.346-0.898c0.299,0,0.527,0.048,0.654,0.083L381.021,46.578z"/>
	<path fill="#FFFFFF" d="M382.952,46.816c0,0.912,2.438,0.637,2.438,2.554c0,1.067-0.758,1.894-2.219,1.894
		c-0.679,0-1.312-0.203-1.689-0.431l0.312-1.091c0.264,0.191,0.815,0.406,1.334,0.406c0.493,0,0.825-0.287,0.825-0.646
		c0-1.055-2.401-0.707-2.401-2.708c0-0.862,0.633-1.642,2.149-1.642c0.586,0,1.195,0.119,1.586,0.287l-0.207,1.14
		c-0.379-0.179-0.86-0.3-1.354-0.3C383.206,46.277,382.952,46.482,382.952,46.816"/>
	<path fill="#FFFFFF" d="M389.887,51.145l-0.207-0.696c-0.287,0.407-0.853,0.815-1.646,0.815c-1.127,0-1.885-0.756-1.885-1.882
		c0-1.09,0.771-1.737,2.127-1.737h1.185v-0.3c0-0.755-0.414-0.995-0.988-0.995c-0.668,0-1.23,0.181-1.689,0.396l-0.381-1.115
		c0.564-0.252,1.334-0.479,2.219-0.479c1.599,0,2.289,0.767,2.289,2.266v3.727H389.887L389.887,51.145z M389.461,48.579h-0.933
		c-0.621,0-0.908,0.312-0.908,0.755c0,0.54,0.277,0.863,0.841,0.863c0.354,0,0.725-0.167,1-0.396V48.579z"/>
	<path fill="#FFFFFF" d="M392.07,49.586v-6.712h1.484v6.628c0,0.491,0.287,0.563,0.908,0.563v1.103c0,0-0.438,0.097-0.828,0.097
		C392.484,51.264,392.07,50.629,392.07,49.586"/>
	<rect x="35.974" y="37.447" fill="#EB3A41" width="3.592" height="3.592"/>
	<rect x="35.981" y="32.039" fill="#EB3A41" width="3.595" height="3.594"/>
	<rect x="35.974" y="42.852" fill="#EB3A41" width="3.592" height="3.592"/>
	<rect x="30.588" y="37.431" fill="#EB3A41" width="3.594" height="3.592"/>
	<rect x="41.375" y="37.414" fill="#EB3A41" width="3.593" height="3.594"/>
	<rect x="19.825" y="37.432" fill="#5D838C" width="3.594" height="3.593"/>
	<rect x="30.604" y="42.852" fill="#5D838C" width="3.596" height="3.592"/>
	<rect x="25.217" y="42.834" fill="#5D838C" width="3.594" height="3.594"/>
	<rect x="30.594" y="32.058" fill="#5D838C" width="3.592" height="3.593"/>
	<rect x="25.205" y="32.071" fill="#5D838C" width="3.594" height="3.593"/>
	<rect x="41.353" y="42.878" fill="#5D838C" width="3.592" height="3.592"/>
	<rect x="36.024" y="48.236" fill="#5D838C" width="3.596" height="3.594"/>
	<rect x="25.207" y="48.236" fill="#5D838C" width="3.593" height="3.594"/>
	<rect x="35.999" y="53.703" fill="#5D838C" width="3.593" height="3.594"/>
	<rect x="30.603" y="53.675" fill="#5D838C" width="3.592" height="3.595"/>
	<rect x="41.393" y="53.675" fill="#5D838C" width="3.594" height="3.595"/>
	<rect x="46.795" y="32.058" fill="#5D838C" width="3.593" height="3.593"/>
	<rect x="30.573" y="26.654" fill="#5D838C" width="3.593" height="3.592"/>
	<rect x="41.372" y="26.674" fill="#5D838C" width="3.592" height="3.592"/>
	<path fill="#98B9C2" d="M1.195,42.053c0.156-5.621,1.748-11.229,4.801-16.294c0.213-0.354,0.55-0.602,0.948-0.703
		c0.402-0.1,0.817-0.037,1.172,0.175c0.729,0.441,0.962,1.395,0.524,2.122c-6.404,10.63-5.716,23.904,1.752,33.818
		c4.854,6.442,11.937,10.609,19.946,11.736c8.007,1.127,15.966-0.927,22.407-5.778c1.539-1.16,2.969-2.467,4.25-3.882
		c0.571-0.63,1.551-0.679,2.182-0.106c0.076,0.069,0.14,0.14,0.197,0.215l0.001,0.004c0.444,0.586,0.405,1.414-0.091,1.964
		c-1.412,1.56-2.988,2.997-4.682,4.274c-7.1,5.35-15.871,7.61-24.699,6.369c-8.826-1.24-16.633-5.834-21.981-12.935
		C3.252,56.829,0.988,49.434,1.195,42.053"/>
	<path fill="#5D838C" d="M46.264,17.828c4.699,2.203,8.795,5.75,11.671,10.417c0.586,0.948,1.118,1.945,1.583,2.962
		c0.17,0.362,0.188,0.773,0.047,1.155c-0.141,0.386-0.424,0.693-0.796,0.864c-0.371,0.171-0.786,0.185-1.167,0.043
		c-0.385-0.144-0.684-0.424-0.854-0.794c-0.412-0.902-0.888-1.788-1.406-2.632c-5.854-9.495-17.387-13.779-28.039-10.423
		C14.496,23.454,7.36,37.155,11.395,49.963c3.377,10.712,13.552,17.7,24.747,16.991c1.229-0.079,2.465-0.252,3.672-0.519
		l0.082-0.014c0.451-0.036,1.382,0.164,1.671,1.193c0.274,0.984-0.477,1.605-1.048,1.781c-1.409,0.313-2.8,0.51-4.187,0.597
		C23.736,70.791,12.287,62.93,8.488,50.876c-4.539-14.409,3.488-29.824,17.898-34.365C33.14,14.385,40.202,14.988,46.264,17.828"/>
	<rect x="75.537" y="37.5" fill="#FEFEFE" width="3.488" height="19.915"/>
	<path fill="#FEFEFE" d="M65.013,51.436l7.575-1.136c0.585-0.085,1.039-0.278,1.347-0.569c0.284-0.271,0.423-0.67,0.423-1.224
		c0-0.862-0.166-1.668-0.491-2.396c-0.327-0.728-0.789-1.36-1.375-1.881c-0.594-0.527-1.313-0.948-2.137-1.252
		c-0.83-0.305-1.766-0.459-2.782-0.459c-0.9,0-1.798,0.143-2.663,0.42c-0.85,0.274-1.614,0.705-2.273,1.278
		c-0.657,0.572-1.195,1.318-1.602,2.218c-0.407,0.898-0.614,1.998-0.614,3.269c0,1.294,0.208,2.433,0.618,3.385
		c0.406,0.947,0.971,1.742,1.677,2.363c0.71,0.625,1.558,1.103,2.519,1.415c0.978,0.318,2.053,0.48,3.198,0.48
		c0.687,0,1.435-0.06,2.224-0.179c0.757-0.112,1.443-0.332,2.047-0.651c0.69-0.362,1.013-0.871,1.013-1.602
		c0-0.314-0.086-0.609-0.262-0.896c-0.124-0.205-0.269-0.377-0.429-0.518c-0.456,0.238-1.007,0.451-1.646,0.634
		c-0.789,0.228-1.636,0.343-2.519,0.343c-0.974,0-1.853-0.188-2.614-0.559c-0.82-0.398-1.373-1.009-1.643-1.816
		c-0.048-0.145-0.028-0.302,0.049-0.431C64.732,51.544,64.864,51.457,65.013,51.436 M64.377,48.887
		c-0.116-0.104-0.177-0.256-0.167-0.412c0.022-0.373,0.1-0.746,0.228-1.104c0.133-0.377,0.336-0.722,0.604-1.026
		c0.271-0.309,0.623-0.563,1.045-0.756c0.423-0.193,0.923-0.292,1.484-0.292c0.898,0,1.602,0.261,2.089,0.772
		c0.46,0.486,0.732,0.992,0.81,1.504c0.042,0.277-0.147,0.537-0.424,0.582l-5.243,0.859c-0.028,0.004-0.055,0.006-0.083,0.006
		C64.595,49.02,64.473,48.973,64.377,48.887"/>
	<path fill="#FEFEFE" d="M84.848,51.436l7.575-1.136c0.585-0.085,1.038-0.278,1.347-0.569c0.284-0.271,0.422-0.67,0.422-1.224
		c0-0.862-0.165-1.668-0.49-2.396c-0.327-0.728-0.789-1.36-1.375-1.881c-0.594-0.527-1.313-0.948-2.137-1.252
		c-0.829-0.305-1.765-0.459-2.781-0.459c-0.902,0-1.799,0.143-2.664,0.42c-0.85,0.274-1.614,0.705-2.273,1.278
		c-0.657,0.572-1.196,1.318-1.602,2.218c-0.407,0.898-0.614,1.998-0.614,3.269c0,1.294,0.208,2.433,0.618,3.385
		c0.406,0.947,0.971,1.742,1.677,2.363c0.71,0.625,1.558,1.103,2.519,1.415c0.978,0.318,2.053,0.48,3.198,0.48
		c0.687,0,1.435-0.06,2.225-0.179c0.756-0.112,1.442-0.332,2.046-0.651c0.69-0.362,1.013-0.871,1.013-1.602
		c0-0.314-0.086-0.609-0.262-0.896c-0.125-0.205-0.269-0.377-0.429-0.518c-0.456,0.238-1.008,0.451-1.646,0.634
		c-0.789,0.228-1.636,0.343-2.519,0.343c-0.974,0-1.854-0.188-2.614-0.559c-0.821-0.398-1.373-1.009-1.643-1.816
		c-0.048-0.145-0.029-0.302,0.049-0.431C84.567,51.544,84.698,51.457,84.848,51.436 M84.212,48.887
		c-0.116-0.104-0.177-0.256-0.167-0.412c0.022-0.373,0.1-0.746,0.228-1.104c0.133-0.377,0.336-0.722,0.604-1.026
		c0.271-0.309,0.623-0.563,1.045-0.756c0.423-0.193,0.923-0.292,1.485-0.292c0.897,0,1.601,0.261,2.088,0.772
		c0.46,0.486,0.732,0.992,0.81,1.504c0.042,0.277-0.146,0.537-0.424,0.582l-5.243,0.859c-0.027,0.004-0.055,0.006-0.083,0.006
		C84.43,49.02,84.307,48.973,84.212,48.887"/>
	<path fill="#A0B6BD" d="M99.478,52.652c0.324,0,0.604-0.008,0.882,0c2.168,0.064,4.336,0.133,6.504,0.195
		c0.594,0.018,1.188,0.004,1.757-0.188c0.317-0.107,0.646-0.221,0.925-0.404c0.75-0.492,0.738-1.329-0.021-1.803
		c-0.259-0.162-0.557-0.289-0.854-0.355c-0.879-0.195-1.765-0.367-2.65-0.522c-1.054-0.187-2.109-0.367-3.127-0.709
		c-0.479-0.161-0.952-0.359-1.395-0.603c-0.984-0.539-1.647-1.375-2.006-2.443c-0.429-1.278-0.477-2.584-0.129-3.883
		c0.415-1.552,1.425-2.631,2.788-3.391c1.133-0.63,2.36-0.952,3.644-0.969c1.492-0.02,2.984,0.031,4.478,0.065
		c0.985,0.023,1.971,0.069,2.956,0.109c0.276,0.011,0.551,0.033,0.813,0.049c0.148,0.653,0.105,2.821-0.081,4.346
		c-0.143,0.022-0.3,0.073-0.457,0.068c-1.576-0.046-3.153-0.107-4.729-0.152c-0.9-0.025-1.803-0.056-2.704-0.031
		c-0.444,0.012-0.895,0.107-1.326,0.228c-0.292,0.081-0.579,0.234-0.825,0.415c-0.639,0.469-0.618,1.29,0.044,1.704
		c0.283,0.177,0.607,0.313,0.932,0.388c0.878,0.197,1.765,0.362,2.65,0.521c1.192,0.212,2.38,0.442,3.522,0.864
		c0.947,0.348,1.77,0.875,2.365,1.721c0.082,0.115,0.163,0.232,0.234,0.355c1.546,2.672,0.652,6.284-1.953,7.896
		c-1.205,0.745-2.524,1.151-3.927,1.164c-1.803,0.016-3.605-0.054-5.407-0.093c-0.704-0.017-1.407-0.051-2.111-0.079
		c-0.277-0.011-0.557-0.024-0.866-0.038c-0.041-0.121-0.105-0.223-0.104-0.324c0.019-1.256,0.046-2.513,0.076-3.77
		C99.377,52.9,99.423,52.82,99.478,52.652"/>
	<path fill="#A0B6BD" d="M158.017,42.557c0.066-1.572-0.009-3.052,0.051-4.553c0.281-0.084,0.517-0.203,0.758-0.217
		c0.673-0.038,1.352-0.081,2.021-0.03c0.757,0.058,1.23,0.531,1.386,1.285c0.069,0.333,0.109,0.679,0.11,1.019
		c0.007,4.428-0.006,8.855,0.012,13.283c0.005,1.281-0.545,2.17-1.621,2.786c-1.361,0.782-2.817,1.114-4.378,1.03
		c-0.733-0.039-1.455-0.119-2.159-0.354c-1.832-0.605-3.092-1.82-3.805-3.625c-0.522-1.322-0.683-2.707-0.594-4.119
		c0.052-0.824,0.158-1.646,0.424-2.438c0.847-2.519,2.551-3.952,5.17-4.284C156.249,42.23,157.073,42.313,158.017,42.557
		 M158.009,46.443c-0.651-0.394-1.306-0.371-1.979-0.192c-0.632,0.168-1.103,0.551-1.428,1.12c-0.682,1.189-0.658,3.62,0.025,4.795
		c0.623,1.074,1.966,1.344,2.791,1.02c0.562-0.222,0.649-0.311,0.651-0.936c0.007-1.741,0.005-3.48-0.001-5.223
		C158.069,46.834,158.031,46.641,158.009,46.443"/>
	<path fill="#A0B6BD" d="M124.657,56.096c-0.119,0.077-0.196,0.116-0.262,0.17c-2.772,2.279-7.11,0.949-8.587-2.1
		c-0.532-1.1-0.775-2.264-0.863-3.466c-0.098-1.351,0.016-2.687,0.437-3.978c0.775-2.387,2.431-3.781,4.812-4.334
		c1.2-0.277,2.41-0.265,3.606,0.01c2.12,0.484,3.563,1.766,4.259,3.865c0.354,1.063,0.5,2.168,0.505,3.289
		c0.007,1.486,0.003,2.973,0.005,4.458c0,0.229-0.016,0.459,0.012,0.685c0.052,0.447,0.187,0.805,0.721,0.91
		c0.478,0.096,0.654,0.371,0.653,0.765c-0.001,0.362-0.234,0.671-0.585,0.733c-0.192,0.035-0.394,0.027-0.591,0.028
		c-0.704,0.003-1.408,0.002-2.113,0.001C125.499,57.131,125.34,57.05,124.657,56.096 M124.727,49.779
		c-0.011-0.687-0.014-1.374-0.226-2.036c-0.229-0.718-0.647-1.276-1.36-1.54c-0.729-0.271-1.482-0.314-2.243-0.108
		c-0.569,0.155-1.029,0.474-1.34,0.978c-0.19,0.311-0.36,0.65-0.459,1.002c-0.309,1.092-0.258,2.205-0.087,3.313
		c0.03,0.196,0.101,0.387,0.172,0.573c0.286,0.754,0.751,1.365,1.532,1.608c0.854,0.266,1.725,0.285,2.54-0.174
		c0.651-0.367,1.026-0.963,1.249-1.666C124.705,51.095,124.727,50.438,124.727,49.779"/>
	<path fill="#A0B6BD" d="M136.585,42.93c0.247-0.064,0.483-0.169,0.727-0.183c0.646-0.034,1.296-0.069,1.939-0.027
		c0.893,0.058,1.379,0.507,1.578,1.398c0.072,0.33,0.086,0.679,0.087,1.019c0.008,1.971,0.006,3.94,0.004,5.911
		c0,0.402,0.016,0.796,0.156,1.181c0.167,0.459,0.474,0.761,0.914,0.946c0.585,0.247,1.865,0.25,2.478-0.301v-9.882
		c0.282-0.172,0.552-0.245,0.83-0.256c0.618-0.021,1.24-0.057,1.854-0.02c0.882,0.053,1.397,0.516,1.6,1.379
		c0.069,0.303,0.1,0.621,0.101,0.932c0.007,2.855-0.003,5.712,0.008,8.566c0.006,1.178-0.51,2.004-1.521,2.563
		c-0.878,0.486-1.816,0.789-2.797,0.906c-1.26,0.152-2.53,0.186-3.779-0.121c-0.382-0.094-0.763-0.207-1.125-0.36
		c-1.346-0.569-2.277-1.551-2.754-2.954c-0.212-0.623-0.348-1.268-0.349-1.929c-0.006-2.8-0.006-5.597-0.004-8.396
		C136.532,43.191,136.563,43.082,136.585,42.93"/>
	<path fill="#A0B6BD" d="M134.795,57.229c-0.777,0.129-3.086,0.114-3.72-0.029c-0.024-0.121-0.068-0.256-0.075-0.393
		c-0.099-1.982-0.027-18.874,0.084-19.55c0.113-0.034,0.242-0.099,0.374-0.107c1.32-0.081,2.783-0.026,3.398,0.127
		c0.023,0.143,0.059,0.304,0.073,0.468c0.013,0.142,0.003,0.285,0.003,0.428c0,6.022,0.001,12.046-0.004,18.069
		C134.93,56.573,135.016,56.928,134.795,57.229"/>
	<path fill="#FEFEFE" d="M57.343,57.459c-0.418,0-0.788-0.032-1.1-0.094c-0.27-0.055-0.495-0.148-0.67-0.279
		c-0.16-0.12-0.279-0.288-0.364-0.514c-0.098-0.258-0.146-0.616-0.146-1.066V41.229c0-0.277-0.225-0.502-0.502-0.502h-4.14
		c-0.07-0.149-0.138-0.33-0.204-0.537c-0.104-0.324-0.154-0.671-0.154-1.032c0-0.616,0.126-1.064,0.366-1.297
		c0.25-0.243,0.576-0.361,0.997-0.361h12.601c0.07,0.149,0.14,0.329,0.204,0.537c0.103,0.324,0.154,0.671,0.154,1.032
		c0,0.625-0.124,1.061-0.366,1.297c-0.25,0.243-0.576,0.361-0.996,0.361h-3.284c-0.276,0-0.502,0.225-0.502,0.502v16.06
		c-0.162,0.028-0.357,0.057-0.583,0.086C58.214,57.432,57.773,57.459,57.343,57.459"/>
</g>
</svg>
